<?xml version="1.0" encoding="utf-8"?>
<!-- Generator: Adobe Illustrator 23.0.6, SVG Export Plug-In . SVG Version: 6.00 Build 0)  -->
<svg version="1.1" id="Layer_1" xmlns="http://www.w3.org/2000/svg" xmlns:xlink="http://www.w3.org/1999/xlink" x="0px" y="0px"
	 viewBox="0 0 2000 2000" style="enable-background:new 0 0 2000 2000;" xml:space="preserve">
<style type="text/css">
	.st0{display:none;}
</style>
<g>
	<g>
		<g>
			<g>
				<g>
					<g>
						<g>
							<g>
								<path d="M1711.7,1545.87c-10.07-27.6-24.23-52.42-42.47-74.47c-0.49-0.63-1.02-1.26-1.54-1.89
									c-11.25-13.33-23.76-25.48-37.54-36.42c-37.53-29.89-84.48-50.96-140.83-63.22c30.13-12.05,56.77-27.44,79.91-46.18
									c19.73-15.95,36.9-34.35,51.57-55.15c12.45-17.71,22.47-36.92,30.04-57.63c11.79-32.15,17.68-67.93,17.68-107.33
									c0-2.03-0.02-4.04-0.05-6.04c-0.67-41.8-8.29-79.4-22.87-112.78c-13.23-30.3-32.17-57.12-56.86-80.48
									c-8.71-8.25-18.12-16.06-28.24-23.44c-72.02-52.47-173.35-78.72-303.97-78.72H750.74v182.64h123.94v-80.48h373.48
									c94.88,0,168.02,18.16,219.38,54.43c11.18,7.89,21.15,16.57,29.89,26.05c27.58,29.82,43.08,67.42,46.45,112.78
									c0.48,6.33,0.71,12.81,0.71,19.44c0,35.7-6.82,67-20.48,93.93c-8.89,17.53-19.76,31.17-30.05,41.66
									c-10.28,10.48-19.98,17.79-26.52,22.67c-15.1,10.07-48.19,29.87-102.71,42.23c0,0-22.97,5.21-44.4,7.42
									c-89.55,9.24-659.74-0.73-685.79-1.2H509.47v109.47h788.28v-0.1c23.2,0.01,36.59,0.01,36.83,0.03
									c0.59,0.03,1.13,0.07,1.13,0.07s19.7,1.21,37.38,3.2c155.11,17.44,208.68,109.51,208.68,109.51
									c16.52,29.42,24.79,64.55,24.79,105.36c0,75.95-26.8,131.75-80.39,167.48c-53.59,35.75-132.89,53.59-237.83,53.59H874.68
									v-326.43H750.74v428.6h539.28c145.13,0,254.83-27.05,329.09-81.22c9.09-6.64,17.63-13.61,25.59-20.95
									c8.86-8.13,17.05-16.69,24.53-25.69c40.84-49.03,61.25-110.8,61.25-185.32C1730.48,1618.57,1724.22,1580.08,1711.7,1545.87z
									 M874.68,1433.09H509.6c5.37,0,178.69-0.02,365.08-0.04V1433.09z"/>
							</g>
						</g>
					</g>
				</g>
			</g>
		</g>
		<g>
			<g>
				<polygon points="1057.81,1101.4 1057.81,1209.65 269.52,1209.65 269.52,25.53 394.7,25.53 394.7,1101.4 				"/>
			</g>
		</g>
	</g>
	<g>
		<path d="M753.63,396.78h14.34v75.08h51.63l-2.08,12.02h-63.89V396.78z"/>
		<path d="M859.42,396.78v87.1h-14.4v-87.1H859.42z"/>
		<path d="M922.92,483.87l-37.46-87.1h15.86l18.74,45.27c6.95,16.84,9.75,24.85,11.36,29.9h0.25c1.35-4.42,4.65-12.37,11.03-28.75
			l19.49-46.43h15.4l-38.07,87.1H922.92z"/>
		<path d="M1068.27,444.23h-51.37v27.7h56.78l-1.84,11.95h-69.34v-87.1h68.49v11.95h-54.09v23.55h51.37V444.23z"/>
		<path d="M1150.75,396.78h14.34v75.08h51.63l-2.08,12.02h-63.89V396.78z"/>
		<path d="M1256.55,396.78v87.1h-14.41v-87.1H1256.55z"/>
		<path d="M1293.67,396.78h67.54v11.89h-53.14v26.32h49.55v12.02h-49.55v36.87h-14.4V396.78z"/>
		<path d="M1455.68,444.23h-51.37v27.7h56.78l-1.84,11.95h-69.34v-87.1h68.49v11.95h-54.09v23.55h51.37V444.23z"/>
		<path d="M1552.57,396.78v87.1h-14.41v-87.1H1552.57z"/>
		<path d="M1589.63,483.87v-87.1h17.17c20.75,29.67,44.42,60.17,49.47,69.46h0.25c-0.79-10.81-0.67-25.17-0.67-39.35v-30.11h13.38
			v87.1h-16.19c-11.82-16.34-44.47-62.43-50.46-72.52h-0.25c0.67,11.1,0.67,23.45,0.67,38.87v33.65H1589.63z"/>
		<path d="M775.29,612.43h-32.6v-11.96h79.61v11.96h-32.54v75.14h-14.47V612.43z"/>
		<path d="M848.82,600.47h14.4v34.62h49.5v-34.62h14.41v87.1h-14.41v-40.52h-49.5v40.52h-14.4V600.47z"/>
		<path d="M1029.94,647.92h-51.37v27.7h56.78l-1.84,11.95h-69.34v-87.1h68.49v11.95h-54.09v23.55h51.37V647.92z"/>
		<path d="M1112.42,600.47h43.44c19.18,0,28.77,8.77,28.77,22.02c0,10.7-7.09,16.45-13.86,18.56c8.01,2.23,17.33,8.06,17.33,20.92
			c0,17.18-13.91,25.6-31.87,25.6h-43.81V600.47z M1152.47,635.96c11.8,0,17.15-4.3,17.15-11.99c0-9.19-7.32-12.11-16.76-12.11
			h-26.2v24.1H1152.47z M1126.66,676.23h26.8c9.76,0,19.41-2.95,19.41-14.44c0-9.63-7.42-14.5-20.21-14.5h-26V676.23z"/>
		<path d="M1218.79,600.47h14.34v75.08h51.63l-2.08,12.02h-63.89V600.47z"/>
		<path d="M1330.39,662.75l-10.38,24.82h-14.95l36.89-87.1h17.82l38.46,87.1h-15.65l-10.87-24.82H1330.39z M1367.27,650.73
			c-10.04-23.07-14.8-34.17-16.82-40.26h-0.12c-1.83,5.9-7.47,20.41-15.7,40.26H1367.27z"/>
		<path d="M1503.91,661.55c-4.75,15.03-15.96,27.85-41.39,27.85c-29.45,0-45-20.55-45-45.23c0-24.68,17.22-45.55,45.75-45.55
			c25.51,0,37.68,13.85,40.88,28.21h-14.72c-3.29-8.14-9.75-16.47-26.35-16.47c-19.11,0-30.34,14.21-30.34,33.29
			c0,18.86,10.98,34.07,30.47,34.07c15.44,0,21.74-6.51,26.16-16.17H1503.91z"/>
		<path d="M1533.25,600.47h14.41v41.76c13.16-11.41,32.29-27.36,48.81-41.76h18.31l-43.49,37.36l46.03,49.74h-18.47l-38.22-41.9
			l-12.99,10.45v31.45h-14.41V600.47z"/>
		<path d="M1672.4,623.56c0,11.42-8.97,20.39-20.64,20.39c-11.55,0-20.76-8.97-20.76-20.39c0-11.18,9.21-20.15,20.76-20.15
			C1663.43,603.42,1672.4,612.38,1672.4,623.56z M1636.16,623.56c0,8.97,6.63,16.09,15.72,16.09c8.84,0,15.36-7.13,15.36-15.97
			c0-8.97-6.51-16.22-15.48-16.22C1642.79,607.47,1636.16,614.72,1636.16,623.56z M1648.57,634.13h-4.67v-20.15
			c1.84-0.37,4.42-0.61,7.74-0.61c3.81,0,5.53,0.61,7,1.47c1.11,0.86,1.97,2.46,1.97,4.42c0,2.21-1.72,3.93-4.18,4.67v0.25
			c1.97,0.74,3.07,2.21,3.69,4.91c0.61,3.07,0.98,4.3,1.47,5.04h-5.04c-0.61-0.74-0.98-2.58-1.6-4.91c-0.37-2.21-1.6-3.19-4.18-3.19
			h-2.21V634.13z M1648.69,622.7h2.21c2.58,0,4.67-0.86,4.67-2.95c0-1.84-1.35-3.07-4.3-3.07c-1.23,0-2.09,0.12-2.58,0.25V622.7z"/>
		<path class="st0" d="M1672.4,611.65c0,11.42-8.97,20.39-20.64,20.39c-11.55,0-20.76-8.97-20.76-20.39
			c0-11.18,9.21-20.15,20.76-20.15C1663.43,591.51,1672.4,600.47,1672.4,611.65z M1636.16,611.65c0,8.97,6.63,16.09,15.72,16.09
			c8.84,0,15.36-7.13,15.36-15.97c0-8.97-6.51-16.22-15.48-16.22C1642.79,595.56,1636.16,602.81,1636.16,611.65z M1648.57,622.22
			h-4.67v-20.15c1.84-0.37,4.42-0.61,7.74-0.61c3.81,0,5.53,0.61,7,1.47c1.11,0.86,1.97,2.46,1.97,4.42c0,2.21-1.72,3.93-4.18,4.67
			v0.25c1.97,0.74,3.07,2.21,3.69,4.91c0.61,3.07,0.98,4.3,1.47,5.04h-5.04c-0.61-0.74-0.98-2.58-1.6-4.91
			c-0.37-2.21-1.6-3.19-4.18-3.19h-2.21V622.22z M1648.69,610.79h2.21c2.58,0,4.67-0.86,4.67-2.95c0-1.84-1.35-3.07-4.3-3.07
			c-1.23,0-2.09,0.12-2.58,0.25V610.79z"/>
	</g>
	<rect x="509.47" y="249.04" width="125.17" height="735.72"/>
</g>
</svg>
