<?xml version="1.0" encoding="UTF-8" standalone="no"?>
<!DOCTYPE svg PUBLIC "-//W3C//DTD SVG 1.1//EN" "http://www.w3.org/Graphics/SVG/1.1/DTD/svg11.dtd">
<svg width="100%" height="100%" viewBox="0 0 2000 2000" version="1.1" xmlns="http://www.w3.org/2000/svg" xmlns:xlink="http://www.w3.org/1999/xlink" xml:space="preserve" xmlns:serif="http://www.serif.com/" style="fill-rule:evenodd;clip-rule:evenodd;stroke-linejoin:round;stroke-miterlimit:2;">
    <g>
        <g>
            <g>
                <g>
                    <g>
                        <g>
                            <g>
                                <g>
                                    <path d="M1711.7,1545.87C1701.63,1518.27 1687.47,1493.45 1669.23,1471.4C1668.74,1470.77 1668.21,1470.14 1667.69,1469.51C1656.44,1456.18 1643.93,1444.03 1630.15,1433.09C1592.62,1403.2 1545.67,1382.13 1489.32,1369.87C1519.45,1357.82 1546.09,1342.43 1569.23,1323.69C1588.96,1307.74 1606.13,1289.34 1620.8,1268.54C1633.25,1250.83 1643.27,1231.62 1650.84,1210.91C1662.63,1178.76 1668.52,1142.98 1668.52,1103.58C1668.52,1101.55 1668.5,1099.54 1668.47,1097.54C1667.8,1055.74 1660.18,1018.14 1645.6,984.76C1632.37,954.46 1613.43,927.64 1588.74,904.28C1580.03,896.03 1570.62,888.22 1560.5,880.84C1488.48,828.37 1387.15,802.12 1256.53,802.12L750.74,802.12L750.74,984.76L874.68,984.76L874.68,904.28L1248.16,904.28C1343.04,904.28 1416.18,922.44 1467.54,958.71C1478.72,966.6 1488.69,975.28 1497.43,984.76C1525.01,1014.58 1540.51,1052.18 1543.88,1097.54C1544.36,1103.87 1544.59,1110.35 1544.59,1116.98C1544.59,1152.68 1537.77,1183.98 1524.11,1210.91C1515.22,1228.44 1504.35,1242.08 1494.06,1252.57C1483.78,1263.05 1474.08,1270.36 1467.54,1275.24C1452.44,1285.31 1419.35,1305.11 1364.83,1317.47C1364.83,1317.47 1341.86,1322.68 1320.43,1324.89C1230.88,1334.13 660.69,1324.16 634.64,1323.69L509.47,1323.69L509.47,1433.16L1297.75,1433.16L1297.75,1433.06C1320.95,1433.07 1334.34,1433.07 1334.58,1433.09C1335.17,1433.12 1335.71,1433.16 1335.71,1433.16C1335.71,1433.16 1355.41,1434.37 1373.09,1436.36C1528.2,1453.8 1581.77,1545.87 1581.77,1545.87C1598.29,1575.29 1606.56,1610.42 1606.56,1651.23C1606.56,1727.18 1579.76,1782.98 1526.17,1818.71C1472.58,1854.46 1393.28,1872.3 1288.34,1872.3L874.68,1872.3L874.68,1545.87L750.74,1545.87L750.74,1974.47L1290.02,1974.47C1435.15,1974.47 1544.85,1947.42 1619.11,1893.25C1628.2,1886.61 1636.74,1879.64 1644.7,1872.3C1653.56,1864.17 1661.75,1855.61 1669.23,1846.61C1710.07,1797.58 1730.48,1735.81 1730.48,1661.29C1730.48,1618.57 1724.22,1580.08 1711.7,1545.87ZM874.68,1433.09L509.6,1433.09C514.97,1433.09 688.29,1433.07 874.68,1433.05L874.68,1433.09Z" style="fill-rule:nonzero;"/>
                                </g>
                            </g>
                        </g>
                    </g>
                </g>
            </g>
            <g>
                <g>
                    <path d="M1057.81,1101.4L1057.81,1209.65L269.52,1209.65L269.52,25.53L394.7,25.53L394.7,1101.4L1057.81,1101.4Z" style="fill-rule:nonzero;"/>
                </g>
            </g>
        </g>
        <rect x="509.47" y="249.04" width="125.17" height="735.72"/>
    </g>
</svg>
