<?xml version="1.0" encoding="UTF-8" standalone="no"?>
<!DOCTYPE svg PUBLIC "-//W3C//DTD SVG 1.1//EN" "http://www.w3.org/Graphics/SVG/1.1/DTD/svg11.dtd">
<svg width="100%" height="100%" viewBox="0 0 2000 2000" version="1.1" xmlns="http://www.w3.org/2000/svg" xmlns:xlink="http://www.w3.org/1999/xlink" xml:space="preserve" xmlns:serif="http://www.serif.com/" style="fill-rule:evenodd;clip-rule:evenodd;stroke-linejoin:round;stroke-miterlimit:2;">
    <g>
        <g>
            <g>
                <g>
                    <g>
                        <g>
                            <g>
                                <g>
                                    <path d="M1711.7,1545.87C1701.63,1518.27 1687.47,1493.45 1669.23,1471.4C1668.74,1470.77 1668.21,1470.14 1667.69,1469.51C1656.44,1456.18 1643.93,1444.03 1630.15,1433.09C1592.62,1403.2 1545.67,1382.13 1489.32,1369.87C1519.45,1357.82 1546.09,1342.43 1569.23,1323.69C1588.96,1307.74 1606.13,1289.34 1620.8,1268.54C1633.25,1250.83 1643.27,1231.62 1650.84,1210.91C1662.63,1178.76 1668.52,1142.98 1668.52,1103.58C1668.52,1101.55 1668.5,1099.54 1668.47,1097.54C1667.8,1055.74 1660.18,1018.14 1645.6,984.76C1632.37,954.46 1613.43,927.64 1588.74,904.28C1580.03,896.03 1570.62,888.22 1560.5,880.84C1488.48,828.37 1387.15,802.12 1256.53,802.12L750.74,802.12L750.74,984.76L874.68,984.76L874.68,904.28L1248.16,904.28C1343.04,904.28 1416.18,922.44 1467.54,958.71C1478.72,966.6 1488.69,975.28 1497.43,984.76C1525.01,1014.58 1540.51,1052.18 1543.88,1097.54C1544.36,1103.87 1544.59,1110.35 1544.59,1116.98C1544.59,1152.68 1537.77,1183.98 1524.11,1210.91C1515.22,1228.44 1504.35,1242.08 1494.06,1252.57C1483.78,1263.05 1474.08,1270.36 1467.54,1275.24C1452.44,1285.31 1419.35,1305.11 1364.83,1317.47C1364.83,1317.47 1341.86,1322.68 1320.43,1324.89C1230.88,1334.13 660.69,1324.16 634.64,1323.69L509.47,1323.69L509.47,1433.16L1297.75,1433.16L1297.75,1433.06C1320.95,1433.07 1334.34,1433.07 1334.58,1433.09C1335.17,1433.12 1335.71,1433.16 1335.71,1433.16C1335.71,1433.16 1355.41,1434.37 1373.09,1436.36C1528.2,1453.8 1581.77,1545.87 1581.77,1545.87C1598.29,1575.29 1606.56,1610.42 1606.56,1651.23C1606.56,1727.18 1579.76,1782.98 1526.17,1818.71C1472.58,1854.46 1393.28,1872.3 1288.34,1872.3L874.68,1872.3L874.68,1545.87L750.74,1545.87L750.74,1974.47L1290.02,1974.47C1435.15,1974.47 1544.85,1947.42 1619.11,1893.25C1628.2,1886.61 1636.74,1879.64 1644.7,1872.3C1653.56,1864.17 1661.75,1855.61 1669.23,1846.61C1710.07,1797.58 1730.48,1735.81 1730.48,1661.29C1730.48,1618.57 1724.22,1580.08 1711.7,1545.87ZM874.68,1433.09L509.6,1433.09C514.97,1433.09 688.29,1433.07 874.68,1433.05L874.68,1433.09Z" style="fill-rule:nonzero;"/>
                                </g>
                            </g>
                        </g>
                    </g>
                </g>
            </g>
            <g>
                <g>
                    <path d="M1057.81,1101.4L1057.81,1209.65L269.52,1209.65L269.52,25.53L394.7,25.53L394.7,1101.4L1057.81,1101.4Z" style="fill-rule:nonzero;"/>
                </g>
            </g>
        </g>
        <g>
            <path d="M753.63,396.78L767.97,396.78L767.97,471.86L819.6,471.86L817.52,483.88L753.63,483.88L753.63,396.78Z" style="fill-rule:nonzero;"/>
            <rect x="845.02" y="396.78" width="14.4" height="87.1" style="fill-rule:nonzero;"/>
            <path d="M922.92,483.87L885.46,396.77L901.32,396.77L920.06,442.04C927.01,458.88 929.81,466.89 931.42,471.94L931.67,471.94C933.02,467.52 936.32,459.57 942.7,443.19L962.19,396.76L977.59,396.76L939.52,483.86L922.92,483.86L922.92,483.87Z" style="fill-rule:nonzero;"/>
            <path d="M1068.27,444.23L1016.9,444.23L1016.9,471.93L1073.68,471.93L1071.84,483.88L1002.5,483.88L1002.5,396.78L1070.99,396.78L1070.99,408.73L1016.9,408.73L1016.9,432.28L1068.27,432.28L1068.27,444.23Z" style="fill-rule:nonzero;"/>
            <path d="M1150.75,396.78L1165.09,396.78L1165.09,471.86L1216.72,471.86L1214.64,483.88L1150.75,483.88L1150.75,396.78Z" style="fill-rule:nonzero;"/>
            <rect x="1242.14" y="396.78" width="14.41" height="87.1" style="fill-rule:nonzero;"/>
            <path d="M1293.67,396.78L1361.21,396.78L1361.21,408.67L1308.07,408.67L1308.07,434.99L1357.62,434.99L1357.62,447.01L1308.07,447.01L1308.07,483.88L1293.67,483.88L1293.67,396.78Z" style="fill-rule:nonzero;"/>
            <path d="M1455.68,444.23L1404.31,444.23L1404.31,471.93L1461.09,471.93L1459.25,483.88L1389.91,483.88L1389.91,396.78L1458.4,396.78L1458.4,408.73L1404.31,408.73L1404.31,432.28L1455.68,432.28L1455.68,444.23Z" style="fill-rule:nonzero;"/>
            <rect x="1538.16" y="396.78" width="14.41" height="87.1" style="fill-rule:nonzero;"/>
            <path d="M1589.63,483.87L1589.63,396.77L1606.8,396.77C1627.55,426.44 1651.22,456.94 1656.27,466.23L1656.52,466.23C1655.73,455.42 1655.85,441.06 1655.85,426.88L1655.85,396.77L1669.23,396.77L1669.23,483.87L1653.04,483.87C1641.22,467.53 1608.57,421.44 1602.58,411.35L1602.33,411.35C1603,422.45 1603,434.8 1603,450.22L1603,483.87L1589.63,483.87Z" style="fill-rule:nonzero;"/>
            <path d="M775.29,612.43L742.69,612.43L742.69,600.47L822.3,600.47L822.3,612.43L789.76,612.43L789.76,687.57L775.29,687.57L775.29,612.43Z" style="fill-rule:nonzero;"/>
            <path d="M848.82,600.47L863.22,600.47L863.22,635.09L912.72,635.09L912.72,600.47L927.13,600.47L927.13,687.57L912.72,687.57L912.72,647.05L863.22,647.05L863.22,687.57L848.82,687.57L848.82,600.47Z" style="fill-rule:nonzero;"/>
            <path d="M1029.94,647.92L978.57,647.92L978.57,675.62L1035.35,675.62L1033.51,687.57L964.17,687.57L964.17,600.47L1032.66,600.47L1032.66,612.42L978.57,612.42L978.57,635.97L1029.94,635.97L1029.94,647.92Z" style="fill-rule:nonzero;"/>
            <path d="M1112.42,600.47L1155.86,600.47C1175.04,600.47 1184.63,609.24 1184.63,622.49C1184.63,633.19 1177.54,638.94 1170.77,641.05C1178.78,643.28 1188.1,649.11 1188.1,661.97C1188.1,679.15 1174.19,687.57 1156.23,687.57L1112.42,687.57L1112.42,600.47ZM1152.47,635.96C1164.27,635.96 1169.62,631.66 1169.62,623.97C1169.62,614.78 1162.3,611.86 1152.86,611.86L1126.66,611.86L1126.66,635.96L1152.47,635.96ZM1126.66,676.23L1153.46,676.23C1163.22,676.23 1172.87,673.28 1172.87,661.79C1172.87,652.16 1165.45,647.29 1152.66,647.29L1126.66,647.29L1126.66,676.23Z" style="fill-rule:nonzero;"/>
            <path d="M1218.79,600.47L1233.13,600.47L1233.13,675.55L1284.76,675.55L1282.68,687.57L1218.79,687.57L1218.79,600.47Z" style="fill-rule:nonzero;"/>
            <path d="M1330.39,662.75L1320.01,687.57L1305.06,687.57L1341.95,600.47L1359.77,600.47L1398.23,687.57L1382.58,687.57L1371.71,662.75L1330.39,662.75ZM1367.27,650.73C1357.23,627.66 1352.47,616.56 1350.45,610.47L1350.33,610.47C1348.5,616.37 1342.86,630.88 1334.63,650.73L1367.27,650.73Z" style="fill-rule:nonzero;"/>
            <path d="M1503.91,661.55C1499.16,676.58 1487.95,689.4 1462.52,689.4C1433.07,689.4 1417.52,668.85 1417.52,644.17C1417.52,619.49 1434.74,598.62 1463.27,598.62C1488.78,598.62 1500.95,612.47 1504.15,626.83L1489.43,626.83C1486.14,618.69 1479.68,610.36 1463.08,610.36C1443.97,610.36 1432.74,624.57 1432.74,643.65C1432.74,662.51 1443.72,677.72 1463.21,677.72C1478.65,677.72 1484.95,671.21 1489.37,661.55L1503.91,661.55Z" style="fill-rule:nonzero;"/>
            <path d="M1533.23,600.47L1547.66,600.47L1547.66,642.23C1560.82,630.82 1579.95,614.87 1596.47,600.47L1614.78,600.47L1571.29,637.83L1617.32,687.57L1598.85,687.57L1560.63,645.67L1547.64,656.12L1547.64,687.57L1533.23,687.57L1533.23,600.47Z" style="fill-rule:nonzero;"/>
            <path d="M1672.4,623.56C1672.4,634.98 1663.43,643.95 1651.76,643.95C1640.21,643.95 1631,634.98 1631,623.56C1631,612.38 1640.21,603.41 1651.76,603.41C1663.43,603.42 1672.4,612.38 1672.4,623.56ZM1636.16,623.56C1636.16,632.53 1642.79,639.65 1651.88,639.65C1660.72,639.65 1667.24,632.52 1667.24,623.68C1667.24,614.71 1660.73,607.46 1651.76,607.46C1642.79,607.47 1636.16,614.72 1636.16,623.56ZM1648.57,634.13L1643.9,634.13L1643.9,613.98C1645.74,613.61 1648.32,613.37 1651.64,613.37C1655.45,613.37 1657.17,613.98 1658.64,614.84C1659.75,615.7 1660.61,617.3 1660.61,619.26C1660.61,621.47 1658.89,623.19 1656.43,623.93L1656.43,624.18C1658.4,624.92 1659.5,626.39 1660.12,629.09C1660.73,632.16 1661.1,633.39 1661.59,634.13L1656.55,634.13C1655.94,633.39 1655.57,631.55 1654.95,629.22C1654.58,627.01 1653.35,626.03 1650.77,626.03L1648.56,626.03L1648.56,634.13L1648.57,634.13ZM1648.69,622.7L1650.9,622.7C1653.48,622.7 1655.57,621.84 1655.57,619.75C1655.57,617.91 1654.22,616.68 1651.27,616.68C1650.04,616.68 1649.18,616.8 1648.69,616.93L1648.69,622.7Z" style="fill-rule:nonzero;"/>
        </g>
        <rect x="509.47" y="249.04" width="125.17" height="735.72"/>
    </g>
</svg>
